<svg xmlns="http://www.w3.org/2000/svg" width="1080" height="1080" viewBox="0 0 1080 1080">
  <defs>
    <linearGradient id="bg" x1="0" x2="1" y1="0" y2="1">
      <stop offset="0" stop-color="#FAFBF7"/>
      <stop offset="0.46" stop-color="#F5DCE0"/>
      <stop offset="1" stop-color="#D6E8F0"/>
    </linearGradient>
    <filter id="shadow" x="-20%" y="-20%" width="140%" height="140%">
      <feDropShadow dx="0" dy="18" stdDeviation="18" flood-color="#5A6670" flood-opacity="0.18"/>
    </filter>
    <style>
      .font { font-family: -apple-system, BlinkMacSystemFont, "Segoe UI", "PingFang SC", "Microsoft YaHei", sans-serif; }
      .title { font-size: 92px; font-weight: 850; fill: #3F4C54; letter-spacing: 0; }
      .sub { font-size: 34px; font-weight: 650; fill: #5A6670; letter-spacing: 0; }
      .small { font-size: 26px; font-weight: 600; fill: #6C777E; letter-spacing: 0; }
      .tag { font-size: 24px; font-weight: 750; fill: #5A6670; letter-spacing: 0; }
    </style>
  </defs>
  <rect width="1080" height="1080" fill="url(#bg)"/>
  <circle cx="920" cy="136" r="94" fill="#FFE0B8" opacity="0.75"/>
  <circle cx="120" cy="905" r="160" fill="#D4E8D0" opacity="0.7"/>
  <path d="M88 218 C190 152 270 250 356 196 C452 136 550 162 638 225 C744 300 830 210 966 276" fill="none" stroke="#FFFFFF" stroke-width="24" stroke-linecap="round" opacity="0.55"/>
  <g filter="url(#shadow)">
    <rect x="106" y="266" width="868" height="500" rx="38" fill="#FAFBF7"/>
    <path d="M184 644 C272 566 320 426 438 452 C526 472 522 334 640 354 C742 372 740 492 846 506 C906 514 902 600 836 650 Z" fill="#D6E8F0"/>
    <path d="M260 602 C342 544 350 456 454 468 C528 476 544 392 626 410 C704 428 708 518 798 528 C842 534 848 596 798 626 Z" fill="#A8C8DC" opacity="0.65"/>
    <path d="M300 568 C390 518 450 538 514 480 C574 426 656 456 692 520 C730 588 800 560 830 620" fill="none" stroke="#E8B8C2" stroke-width="14" stroke-linecap="round" stroke-dasharray="2 30"/>
    <g>
      <circle cx="302" cy="568" r="16" fill="#E8B8C2"/>
      <circle cx="514" cy="480" r="16" fill="#E8B8C2"/>
      <circle cx="692" cy="520" r="16" fill="#E8B8C2"/>
      <circle cx="830" cy="620" r="16" fill="#E8B8C2"/>
    </g>
    <rect x="632" y="320" width="246" height="164" rx="20" fill="#FFFFFF" opacity="0.92"/>
    <rect x="656" y="348" width="82" height="60" rx="12" fill="#F5DCE0"/>
    <rect x="754" y="348" width="82" height="60" rx="12" fill="#D4E8D0"/>
    <rect x="656" y="424" width="180" height="16" rx="8" fill="#D8DDD8"/>
    <rect x="656" y="452" width="126" height="16" rx="8" fill="#D8DDD8"/>
  </g>
  <text class="font title" x="96" y="148">Map of Us</text>
  <text class="font sub" x="100" y="204">情侣记忆地图模板，已开源</text>
  <text class="font small" x="128" y="828">本地优先 · Next.js 16 · Electron 桌面端 · 可改成你们自己的地图</text>
  <g transform="translate(128 882)">
    <rect width="210" height="58" rx="29" fill="#FFFFFF" opacity="0.86"/>
    <text class="font tag" x="30" y="38">GitHub 自取</text>
  </g>
  <g transform="translate(360 882)">
    <rect width="246" height="58" rx="29" fill="#FFFFFF" opacity="0.66"/>
    <text class="font tag" x="28" y="38">把回忆放进地图</text>
  </g>
  <g transform="translate(630 882)">
    <rect width="272" height="58" rx="29" fill="#FFFFFF" opacity="0.66"/>
    <text class="font tag" x="28" y="38">给想要的人一个起点</text>
  </g>
</svg>
